<svg width="186" height="49" viewBox="0 0 186 49" xmlns="http://www.w3.org/2000/svg" xmlns:xlink="http://www.w3.org/1999/xlink" fill="none" overflow="hidden"><path d="M103.929 28.5489 100.878 28.5489C100.713 28.5489 100.584 28.4202 100.584 28.2548L100.584 25.3878C100.584 25.2224 100.713 25.0938 100.878 25.0938L103.929 25.0938C104.094 25.0938 104.223 25.2224 104.223 25.3878L104.223 28.2548C104.223 28.4202 104.094 28.5489 103.929 28.5489ZM103.837 46.3023 101.007 46.3023C100.841 46.3023 100.713 46.1737 100.713 46.0083L100.713 31.2689C100.713 31.1035 100.841 30.9748 101.007 30.9748L103.837 30.9748C104.002 30.9748 104.131 31.1035 104.131 31.2689L104.131 46.0083C104.131 46.1553 104.002 46.3023 103.837 46.3023ZM83.9883 46.0084C83.9883 46.1739 84.117 46.3025 84.2824 46.3025L87.0943 46.3025C87.2597 46.3025 87.3883 46.1739 87.3883 46.0084L87.3883 37.7382C87.3883 35.4042 88.6932 33.8604 90.7883 33.8604 93.0672 33.8604 94.078 35.3123 94.078 37.6463L94.078 45.9901C94.078 46.1555 94.2066 46.2841 94.3721 46.2841L97.2207 46.2841C97.3861 46.2841 97.5147 46.1555 97.5147 45.9901L97.5147 36.8009C97.5147 33.1253 95.6402 30.6074 91.9277 30.6074 89.6488 30.6074 88.1418 31.3977 86.5613 33.1253 85.6056 31.4344 84.0251 30.6074 81.8013 30.6074 79.9635 30.6074 78.4381 31.4161 77.2251 33.015L77.2251 31.2507C77.2251 31.0853 77.0964 30.9566 76.931 30.9566L74.1743 30.9566C74.0089 30.9566 73.8802 31.0853 73.8802 31.2507L73.8802 45.9901C73.8802 46.1555 74.0089 46.2841 74.1743 46.2841L77.0229 46.2841C77.1883 46.2841 77.317 46.1555 77.317 45.9901L77.317 37.7566C77.317 35.4409 78.6035 33.8604 80.6802 33.8604 82.9591 33.8604 83.9883 35.3858 83.9883 37.6831L83.9883 46.0084ZM59.9127 37.0395 67.9808 37.0395C67.8705 34.8892 66.1614 33.566 63.9743 33.566 61.8792 33.566 60.2252 34.9444 59.9127 37.0395ZM59.7473 39.6309C59.7841 40.7887 60.2435 41.726 61.1257 42.4979 62.0262 43.2514 63.0554 43.6189 64.2316 43.6189 66.0511 43.6189 67.3743 42.9022 68.2197 41.5054 68.3116 41.3584 68.4954 41.3033 68.6241 41.3952L70.4619 42.6081C70.7376 42.7919 70.7743 42.9757 70.7008 43.1043 69.3776 45.3281 66.9333 46.5595 64.2684 46.5595 61.9895 46.5595 60.0598 45.806 58.4976 44.2989 56.9722 42.7735 56.2003 40.8622 56.2003 38.5833 56.2003 36.3779 56.9538 34.5033 58.4241 32.9595 59.8944 31.4158 61.7322 30.6255 63.956 30.6255 66.29 30.6255 68.1278 31.3422 69.4695 32.8125 70.7927 34.2828 71.4543 36.1757 71.4543 38.5465 71.4543 38.859 71.4359 39.1163 71.4175 39.3368 71.3992 39.4838 71.2705 39.6125 71.1235 39.6125L59.7473 39.6125 59.7473 39.6309ZM42.9679 42.5717 44.9895 41.4507C45.2836 41.2852 45.4674 41.3404 45.5409 41.4874 46.3679 42.9577 47.5441 43.6928 49.0879 43.6928 50.3927 43.6928 51.5138 43.0312 51.5138 42.002 51.5138 41.1198 50.4479 40.4215 48.3528 39.9988 46.6436 39.6496 45.3571 39.0431 44.5117 38.1609 43.7949 37.3891 43.409 36.4701 43.409 35.3674 43.409 33.9891 43.9603 32.868 45.0814 31.9858 46.2025 31.1037 47.5074 30.6626 48.996 30.6626 51.6609 30.6626 53.5538 31.7285 54.6381 33.8604 54.7117 34.0074 54.6565 34.1729 54.5095 34.2464L52.3592 35.4593C52.2122 35.5328 52.0468 35.4777 51.9549 35.3491 51.2565 34.1545 50.2457 33.548 48.8674 33.548 47.8014 33.548 46.6987 34.2096 46.6987 35.0366 46.6987 36.0474 47.5625 36.562 49.5473 36.9847 53.0392 37.7566 54.8771 39.429 54.8771 41.7998 54.8771 43.215 54.3257 44.3544 53.2598 45.2366 52.1938 46.1187 50.7787 46.5598 49.0511 46.5598 46.0922 46.5598 44.0155 45.3469 42.8025 42.9761 42.7841 42.829 42.8393 42.6452 42.9679 42.5717ZM117.804 46.0083C117.804 46.1737 117.933 46.3024 118.098 46.3024L118.098 46.284 120.947 46.284C121.112 46.284 121.241 46.1553 121.241 45.9899L121.241 36.8375C121.241 33.1619 119.238 30.644 115.47 30.644 113.504 30.644 111.942 31.4527 110.765 33.0332L110.765 31.2689C110.765 31.1035 110.637 30.9749 110.471 30.9749L107.715 30.9749C107.549 30.9749 107.421 31.1035 107.421 31.2689L107.421 46.0083C107.421 46.1737 107.549 46.3024 107.715 46.3024L110.563 46.3024C110.729 46.3024 110.857 46.1737 110.857 46.0083L110.857 37.7748C110.857 35.4408 112.236 33.897 114.404 33.897 116.683 33.897 117.804 35.4224 117.804 37.7197L117.804 46.0083ZM126.938 38.5467C126.938 39.8883 127.38 41.0462 128.243 42.0202 129.107 42.9759 130.228 43.4537 131.588 43.4537 132.948 43.4537 134.069 42.9943 134.896 42.0386 135.742 41.0829 136.164 39.9435 136.164 38.6018 136.164 37.2602 135.723 36.1024 134.859 35.1467 134.014 34.1911 132.893 33.7316 131.551 33.7316 130.191 33.7316 129.07 34.1911 128.207 35.1467 127.38 36.0656 126.938 37.1867 126.938 38.5467ZM137.285 32.923C138.866 34.4484 139.656 36.3046 139.656 38.5467 139.656 40.8072 138.884 42.7186 137.285 44.2624 135.723 45.7878 133.83 46.5597 131.551 46.5597 129.309 46.5597 127.38 45.7878 125.781 44.2624 124.2 42.737 123.41 40.844 123.41 38.6018 123.41 36.3597 124.218 34.4667 125.799 32.9413 127.38 31.4159 129.309 30.644 131.57 30.644 133.812 30.644 135.705 31.3976 137.285 32.923ZM147.743 42.296 143.295 31.1403C143.258 31.0301 143.148 30.9565 143.019 30.9565L139.95 30.9565C139.73 30.9565 139.601 31.1587 139.675 31.3609L145.942 46.1003C145.997 46.2105 146.107 46.2841 146.217 46.2841L149.25 46.2841C149.378 46.2841 149.47 46.2105 149.525 46.1003L155.7 31.3609C155.774 31.1771 155.627 30.9565 155.425 30.9565L152.466 30.9565C152.337 30.9565 152.227 31.0301 152.19 31.1403L147.743 42.296ZM159.266 38.5467C159.266 39.8883 159.707 41.0462 160.571 42.0202 161.434 42.9759 162.556 43.4537 163.916 43.4537 165.276 43.4537 166.397 42.9943 167.224 42.0386 168.069 41.0829 168.492 39.9435 168.492 38.6018 168.492 37.2602 168.051 36.1024 167.187 35.1467 166.36 34.1911 165.22 33.7316 163.879 33.7316 162.519 33.7316 161.398 34.1911 160.534 35.1467 159.689 36.0656 159.266 37.1867 159.266 38.5467ZM169.613 32.923C171.193 34.4484 171.984 36.3046 171.984 38.5467 171.984 40.8072 171.212 42.7186 169.613 44.2624 168.051 45.7878 166.158 46.5597 163.879 46.5597 161.637 46.5597 159.707 45.7878 158.108 44.2624 156.527 42.737 155.737 40.844 155.737 38.6018 155.737 36.3597 156.546 34.4667 158.126 32.9413 159.707 31.4159 161.637 30.644 163.897 30.644 166.121 30.644 168.014 31.3976 169.613 32.923ZM175.163 41.4507 173.141 42.5717C172.994 42.6452 172.939 42.829 172.976 42.9761 174.189 45.3469 176.266 46.5598 179.225 46.5598 180.952 46.5598 182.367 46.1187 183.433 45.2366 184.499 44.3544 185.051 43.215 185.051 41.7998 185.051 39.429 183.213 37.7566 179.721 36.9847 177.736 36.562 176.872 36.0474 176.872 35.0366 176.872 34.2096 177.975 33.548 179.041 33.548 180.419 33.548 181.43 34.1545 182.128 35.3491 182.22 35.4777 182.386 35.5328 182.533 35.4593L184.683 34.2464C184.83 34.1729 184.885 34.0074 184.812 33.8604 183.727 31.7285 181.834 30.6626 179.17 30.6626 177.681 30.6626 176.376 31.1037 175.255 31.9858 174.134 32.868 173.583 33.9891 173.583 35.3674 173.583 36.4701 173.968 37.3891 174.685 38.1609 175.531 39.0431 176.817 39.6496 178.526 39.9988 180.621 40.4215 181.687 41.1198 181.687 42.002 181.687 43.0312 180.566 43.6928 179.261 43.6928 177.718 43.6928 176.541 42.9577 175.714 41.4874 175.641 41.3404 175.457 41.2852 175.163 41.4507Z" fill="#FFFFFF" fill-rule="evenodd" clip-rule="evenodd"/><path d="M101.815 2.98486 104.609 2.98486C104.719 2.98486 104.811 3.07676 104.811 3.18703L104.811 22.4107C104.811 22.521 104.719 22.6129 104.609 22.6129L101.815 22.6129C101.705 22.6129 101.613 22.521 101.613 22.4107L101.613 3.18703C101.613 3.07676 101.705 2.98486 101.815 2.98486ZM110.269 2.98486 107.384 2.98486C107.274 2.98486 107.182 3.07676 107.182 3.18703L107.182 6.18269C107.182 6.29296 107.274 6.38485 107.384 6.38485L108.413 6.38485C109.644 6.38485 110.49 5.64972 110.49 4.41837L110.49 3.18703C110.453 3.07676 110.38 2.98486 110.269 2.98486ZM132.25 20.0218C129.695 20.0218 127.931 18.0002 127.931 15.3904 127.931 12.7807 129.695 10.7775 132.25 10.7775 134.804 10.7775 136.569 12.7991 136.569 15.3904 136.569 18.0002 134.804 20.0218 132.25 20.0218ZM139.307 8.16776 136.514 8.16776C136.403 8.16776 136.311 8.25966 136.311 8.36993L136.311 10.1159C135.503 8.95803 133.757 7.89209 131.662 7.89209 127.692 7.89209 124.678 11.2737 124.678 15.3904 124.678 19.5256 127.692 22.9072 131.662 22.9072 133.757 22.9072 135.484 21.8412 136.311 20.6834L136.311 22.4293C136.311 22.5396 136.403 22.6315 136.514 22.6315L139.307 22.6315C139.417 22.6315 139.509 22.5396 139.509 22.4293L139.509 8.38831C139.509 8.25966 139.417 8.16776 139.307 8.16776ZM124.035 19.7279 116.408 19.7279 123.961 10.7593C123.998 10.7226 124.016 10.6858 124.016 10.649L124.016 8.37013C124.016 8.25986 123.924 8.16797 123.814 8.16797L112.603 8.16797C112.493 8.16797 112.401 8.25986 112.401 8.37013L112.401 10.8696C112.401 10.9799 112.493 11.0717 112.603 11.0717L119.881 11.0717 112.328 20.0587C112.291 20.0955 112.291 20.1322 112.291 20.1874L112.291 22.4295C112.291 22.5398 112.383 22.6317 112.493 22.6317L124.035 22.6317C124.145 22.6317 124.237 22.5398 124.237 22.4295L124.237 19.9301C124.237 19.8198 124.145 19.7279 124.035 19.7279ZM107.421 8.16797 110.214 8.16797C110.324 8.16797 110.416 8.25986 110.416 8.38851L110.416 22.4295C110.416 22.5398 110.324 22.6317 110.214 22.6317L107.421 22.6317C107.36 22.6317 107.304 22.6037 107.267 22.5848 107.237 22.5694 107.219 22.5601 107.219 22.5766L107.219 8.37013C107.219 8.25986 107.31 8.16797 107.421 8.16797ZM92.0748 20.0218C89.5202 20.0218 87.7559 18.0002 87.7559 15.3904 87.7559 12.7807 89.5202 10.7775 92.0748 10.7775 94.6294 10.7775 96.3937 12.7991 96.3937 15.3904 96.3937 18.0002 94.6294 20.0218 92.0748 20.0218ZM99.1137 8.16776 96.3202 8.16776C96.2099 8.16776 96.118 8.25966 96.118 8.36993L96.118 10.1159C95.3094 8.95803 93.5634 7.89209 91.4683 7.89209 87.4986 7.89209 84.4846 11.2737 84.4846 15.3904 84.4846 19.5256 87.4986 22.9072 91.4683 22.9072 93.5634 22.9072 95.291 21.8412 96.118 20.6834L96.118 22.4293C96.118 22.5396 96.2099 22.6315 96.3202 22.6315L99.1137 22.6315C99.2239 22.6315 99.3158 22.5396 99.3158 22.4293L99.3158 8.38831C99.3158 8.25966 99.2239 8.16776 99.1137 8.16776ZM81.1397 17.5955C81.1949 17.5036 81.3235 17.4669 81.4154 17.522L83.8413 18.8452C83.9332 18.9004 83.97 19.029 83.9148 19.1209 82.6467 21.4366 80.2024 22.9252 77.2619 22.9252 72.9062 22.9252 69.5981 19.6906 69.5981 15.4085 69.5981 11.1447 72.9062 7.91016 77.2619 7.91016 80.2024 7.91016 82.6467 9.38042 83.9148 11.7145 83.9883 11.8064 83.9332 11.935 83.8413 11.9901L81.4154 13.295C81.3235 13.3501 81.1949 13.295 81.1397 13.2031 80.4965 11.9534 79.3019 11.0345 77.7581 10.8691 75.0933 10.5934 72.8695 12.7069 72.8511 15.3717 72.8327 17.9631 74.6706 19.9663 77.2619 19.9663 79.0446 19.9663 80.4046 18.9739 81.1397 17.5955ZM61.0522 19.9483C58.4793 19.9483 56.6598 17.945 56.6598 15.3904 56.6598 12.8175 58.4609 10.8142 61.0522 10.8142 63.6068 10.8142 65.3895 12.8175 65.3895 15.3904 65.4079 17.9634 63.6068 19.9483 61.0522 19.9483ZM61.0522 7.89209C56.7517 7.89209 53.4436 11.2002 53.4436 15.3904 53.4436 19.5807 56.7517 22.9072 61.0522 22.9072 65.3344 22.9072 68.6425 19.5807 68.6425 15.3904 68.6425 11.2002 65.3344 7.89209 61.0522 7.89209ZM46.7355 19.3787 53.1128 19.3787C53.2231 19.3787 53.315 19.4706 53.315 19.5809L53.315 22.4295C53.315 22.5398 53.2231 22.6317 53.1128 22.6317L46.221 22.6317C44.6404 22.6317 43.3539 21.3452 43.3539 19.7647L43.3539 8.37013C43.3539 8.25986 43.4458 8.16797 43.5561 8.16797L46.5334 8.16797C46.6437 8.16797 46.7355 8.25986 46.7355 8.37013L46.7355 19.3787Z" fill="#FFFFFF" fill-rule="evenodd" clip-rule="evenodd"/><path d="M28.2102 36.066 28.2102 47.001C28.2102 47.7362 27.6221 48.3243 26.8686 48.3243L16.6502 48.3243C7.95729 48.3243 0.900024 41.3038 0.900024 32.6476L0.900024 25.4801C0.900024 24.9471 1.23083 24.4509 1.72705 24.2487L14.5367 19.1028 14.5367 32.6292C14.5367 33.787 15.4924 34.7427 16.6502 34.7427L26.8502 34.7427C27.6037 34.7427 28.2102 35.3308 28.2102 36.066Z" fill="#FFFFFF"/><path d="M28.2102 1.22063 28.2102 7.63466C28.2102 11.8984 26.2437 14.3979 22.3475 15.96L14.5551 19.0843 14.5551 6.27466C14.5551 5.74169 14.8859 5.24548 15.3821 5.04331L26.9788 0.375227C27.5669 0.173066 28.2102 0.595768 28.2102 1.22063Z" fill="#FFFFFF"/></svg>