<svg width="43" height="48" viewBox="0 0 43 48" xmlns="http://www.w3.org/2000/svg" xmlns:xlink="http://www.w3.org/1999/xlink" fill="none" overflow="hidden"><path d="M32.1709 16.097 32.1709 3.78543 29.5152 3.79708 29.5152 5.54423C28.5834 4.26299 27.1274 3.47095 25.2056 3.47095 21.851 3.47095 19.0673 6.27803 19.0673 9.94705 19.0673 13.5928 21.851 16.4231 25.2056 16.4231 27.1274 16.4231 28.5834 15.6311 29.5152 14.3266L29.5152 16.097 32.1709 16.097ZM25.6132 6.01014C27.8263 6.01014 29.5036 7.65246 29.5036 9.94705 29.5036 12.23 27.8263 13.884 25.6132 13.884 23.4002 13.884 21.7229 12.23 21.7229 9.94705 21.7229 7.6641 23.4002 6.01014 25.6132 6.01014ZM16.0156 16.097 16.0156 13.5811 10.0287 13.5811 15.771 5.55587 15.771 3.78543 6.65085 3.78543 6.65085 6.30132 12.1718 6.30132 6.40625 14.3266 6.40625 16.097 16.0156 16.097ZM31.5303 19.8941 28.2223 19.8941 25.5667 19.8941 25.5667 28.8512 25.5667 32.2174 28.2223 32.2174 28.2223 28.8512 31.5303 28.8512C33.9996 28.8512 36.0146 26.8478 36.0146 24.3785 36.003 21.8975 33.9996 19.8941 31.5303 19.8941ZM31.5303 26.1839 28.2223 26.1839 28.2223 22.5498 31.5303 22.5498C32.532 22.5498 33.3473 23.3651 33.3473 24.3668 33.3473 25.3685 32.532 26.1839 31.5303 26.1839ZM21.8045 24.3668C21.8045 26.1373 20.7911 27.6515 19.3119 28.3853L22.084 32.1941 18.7994 32.1941 16.365 28.8279 14.0238 28.8279 14.0238 32.1941 11.3682 32.1941 11.3682 19.8825 17.3318 19.8825C19.8011 19.8825 21.8045 21.8975 21.8045 24.3668ZM17.3318 22.5498 14.0238 22.5498 14.0238 26.1839 17.3318 26.1839C18.3335 26.1839 19.1488 25.3685 19.1488 24.3668 19.1488 23.3651 18.3335 22.5498 17.3318 22.5498Z" fill="#FFFFFF" fill-rule="evenodd" clip-rule="evenodd"/><path d="M7.47781 19.8942 2.06165 19.8942 2.06165 0 42.3509 0 35.6186 16.0971 40.4407 16.0971 40.3242 35.9097 0.128136 35.8049 7.47781 19.8942ZM32.1709 16.0971 32.1709 3.7855 29.5152 3.79714 29.5152 5.54429C28.5834 4.26305 27.1274 3.47101 25.2055 3.47101 21.851 3.47101 19.0672 6.27809 19.0672 9.94711 19.0672 13.5928 21.851 16.4232 25.2055 16.4232 27.1274 16.4232 28.5834 15.6312 29.5152 14.3266L29.5152 16.0971 32.1709 16.0971ZM25.6132 6.0102C27.8263 6.0102 29.5035 7.65252 29.5035 9.94711 29.5035 12.23 27.8263 13.884 25.6132 13.884 23.4002 13.884 21.7229 12.23 21.7229 9.94711 21.7229 7.66417 23.4002 6.0102 25.6132 6.0102ZM16.0155 16.0971 16.0155 13.5812 10.0286 13.5812 15.7709 5.55593 15.7709 3.78549 6.65083 3.78549 6.65083 6.30139 12.1718 6.30139 6.40623 14.3266 6.40623 16.0971 16.0155 16.0971ZM31.5302 19.8942 28.2223 19.8942 25.5666 19.8942 25.5666 28.8513 25.5666 32.2174 28.2223 32.2174 28.2223 28.8513 31.5302 28.8513C33.9995 28.8513 36.0146 26.8478 36.0146 24.3785 36.0029 21.8976 33.9995 19.8942 31.5302 19.8942ZM31.5302 26.1839 28.2223 26.1839 28.2223 22.5499 31.5302 22.5499C32.5319 22.5499 33.3473 23.3652 33.3473 24.3669 33.3473 25.3686 32.5319 26.1839 31.5302 26.1839ZM21.8044 24.3669C21.8044 26.1373 20.7911 27.6515 19.3118 28.3853L22.084 32.1941 18.7993 32.1941 16.365 28.828 14.0238 28.828 14.0238 32.1941 11.3681 32.1941 11.3681 19.8826 17.3317 19.8826C19.801 19.8826 21.8044 21.8976 21.8044 24.3669ZM17.3317 22.5499 14.0238 22.5499 14.0238 26.1839 17.3317 26.1839C18.3334 26.1839 19.1488 25.3686 19.1488 24.3669 19.1488 23.3652 18.3334 22.5499 17.3317 22.5499ZM25.7297 39.602 24.5533 39.602C24.5067 39.602 24.4717 39.637 24.4717 39.6836L24.4717 47.7904C24.4717 47.8369 24.5067 47.8719 24.5533 47.8719L25.7297 47.8719C25.7763 47.8719 25.8112 47.8369 25.8112 47.7904L25.8112 39.6836C25.8112 39.637 25.7763 39.602 25.7297 39.602ZM26.8828 39.602 28.0942 39.602C28.1408 39.602 28.1757 39.637 28.1873 39.6836L28.1873 40.2077C28.1873 40.7202 27.8263 41.0347 27.3138 41.0347L26.8828 41.0347C26.8362 41.0347 26.8013 40.9998 26.8013 40.9532L26.8013 39.6836C26.8013 39.637 26.8362 39.602 26.8828 39.602ZM39.1128 41.7802 40.2893 41.7802C40.3358 41.7802 40.3708 41.8151 40.3708 41.885L40.3708 47.802C40.3708 47.8486 40.3358 47.8835 40.2893 47.8835L39.1128 47.8835C39.0663 47.8835 39.0313 47.8486 39.0313 47.802L39.0313 47.0682C38.6935 47.5457 37.9597 48 37.0862 48 35.4205 48 34.1509 46.5673 34.1509 44.8318 34.1509 43.0847 35.4205 41.6637 37.0862 41.6637 37.9597 41.6637 38.6819 42.1063 39.0313 42.5955L39.0313 41.8617C39.0313 41.8151 39.0663 41.7802 39.1128 41.7802ZM35.5254 44.8318C35.5254 45.9267 36.2592 46.777 37.3308 46.777 38.3907 46.777 39.1361 45.9151 39.1478 44.8318 39.1478 43.737 38.3907 42.8867 37.3308 42.8867 36.2708 42.8867 35.5254 43.737 35.5254 44.8318ZM30.6683 46.6489 33.8714 46.6489C33.9296 46.6489 33.9646 46.6955 33.9529 46.7421L33.9529 47.7904C33.9529 47.8369 33.918 47.8719 33.8714 47.8719L29.0376 47.8719C28.991 47.8719 28.9561 47.8369 28.9561 47.7904L28.9561 46.8469C28.9561 46.8236 28.9561 46.8003 28.9677 46.7887L32.1359 43.0032 29.0726 43.0032C29.026 43.0032 28.991 42.9682 28.991 42.9216L28.991 41.8733C28.991 41.8268 29.026 41.7918 29.0726 41.7918L33.7782 41.7918C33.8248 41.7918 33.8598 41.8268 33.8598 41.8733L33.8598 42.8285C33.8598 42.8401 33.8481 42.8634 33.8365 42.875L30.6683 46.6489ZM28.0709 41.7802 26.8944 41.7802C26.8479 41.7802 26.8129 41.8151 26.8129 41.8617L26.8129 47.8486C26.8129 47.8438 26.8188 47.8469 26.8289 47.8521 26.8435 47.8597 26.8669 47.8719 26.8944 47.8719L28.0709 47.8719C28.1175 47.8719 28.1524 47.8369 28.1524 47.7903L28.1524 41.8733C28.1524 41.8151 28.1175 41.7802 28.0709 41.7802ZM22.247 41.7802 23.4234 41.7802C23.47 41.7802 23.505 41.8151 23.505 41.885L23.505 47.802C23.505 47.8486 23.47 47.8835 23.4234 47.8835L22.247 47.8835C22.2004 47.8835 22.1655 47.8486 22.1655 47.802L22.1655 47.0682C21.8277 47.5457 21.0939 48 20.2203 48 18.5547 48 17.2851 46.5673 17.2851 44.8318 17.2851 43.0847 18.5547 41.6637 20.2203 41.6637 21.0939 41.6637 21.8161 42.1063 22.1655 42.5955L22.1655 41.8617C22.1655 41.8151 22.2004 41.7802 22.247 41.7802ZM18.6479 44.8318C18.6479 45.9267 19.3934 46.777 20.4649 46.777 21.5365 46.777 22.2703 45.9151 22.2703 44.8318 22.2703 43.737 21.5365 42.8867 20.4649 42.8867 19.3934 42.8867 18.6479 43.737 18.6479 44.8318ZM15.9806 45.7171C15.934 45.6938 15.8874 45.7054 15.8641 45.752 15.5613 46.3344 14.9789 46.7421 14.2334 46.7421 13.1502 46.7421 12.3698 45.9034 12.3815 44.8085 12.3931 43.6904 13.3249 42.7935 14.4431 42.91 15.0954 42.9799 15.5846 43.3642 15.8641 43.8884 15.8874 43.935 15.9457 43.9466 15.9806 43.9233L16.9939 43.3759C17.0405 43.3526 17.0522 43.306 17.0289 43.2594 16.4931 42.281 15.4681 41.652 14.2334 41.652 12.4048 41.652 11.0187 43.0148 11.0187 44.8202 11.0187 46.6256 12.4048 47.9884 14.2334 47.9884 15.4681 47.9884 16.4931 47.3594 17.0289 46.381 17.0522 46.3344 17.0405 46.2878 16.9939 46.2645L15.9806 45.7171ZM4.2514 44.8318C4.2514 43.0614 5.63747 41.6637 7.44286 41.6637 9.2366 41.6637 10.6343 43.0614 10.6343 44.8318 10.6343 46.6023 9.24824 48 7.44286 48 5.63747 48 4.2514 46.6023 4.2514 44.8318ZM5.60252 44.8318C5.60252 45.9151 6.35962 46.7537 7.44286 46.7537 8.51444 46.7537 9.25989 45.9034 9.27154 44.8318 9.27154 43.7486 8.51444 42.91 7.44286 42.91 6.35962 42.91 5.60252 43.7486 5.60252 44.8318ZM4.11162 46.5091 1.43266 46.5091 1.43266 41.8733C1.43266 41.8268 1.39772 41.7918 1.35113 41.7918L0.0931799 41.7918C0.0465892 41.7918 0 41.8268 0 41.8733L0 46.6722C0 47.3361 0.535792 47.8719 1.21136 47.8719L4.11162 47.8719C4.15821 47.8719 4.19316 47.8369 4.19316 47.7904L4.19316 46.5907C4.19316 46.5441 4.15821 46.5091 4.11162 46.5091Z" fill="#4A4A4A" fill-rule="evenodd" clip-rule="evenodd"/></svg>